<svg width="966" height="173" viewBox="0 0 966 173" fill="none" xmlns="http://www.w3.org/2000/svg">
<rect width="966" height="173" rx="86.5" fill="url(#paint0_radial_571_7)"/>
<rect width="966" height="173" rx="86.5" fill="url(#paint1_radial_571_7)"/>
<path d="M178.798 106.671C175.897 106.671 173.292 106.215 170.983 105.302C168.691 104.389 166.74 103.064 165.128 101.327C163.517 99.5726 162.282 97.451 161.422 94.9624C160.563 92.4738 160.133 89.654 160.133 86.5029V86.4761C160.133 82.3224 160.885 78.7686 162.389 75.8145C163.893 72.8424 166.024 70.5597 168.781 68.9663C171.556 67.3729 174.832 66.5762 178.61 66.5762C181.725 66.5762 184.473 67.1312 186.854 68.2412C189.236 69.3333 191.169 70.8372 192.655 72.7529C194.159 74.6686 195.126 76.8439 195.556 79.2788L195.636 79.6548H187.499L187.392 79.3862C186.747 77.5063 185.673 76.0472 184.169 75.0088C182.665 73.9704 180.821 73.4512 178.637 73.4512C176.506 73.4512 174.671 73.9614 173.131 74.9819C171.61 75.9845 170.437 77.4526 169.613 79.3862C168.808 81.3198 168.405 83.6562 168.405 86.3955V86.4224C168.405 88.5171 168.646 90.397 169.13 92.062C169.613 93.7091 170.312 95.1056 171.225 96.2515C172.156 97.3973 173.266 98.2746 174.555 98.8833C175.862 99.492 177.321 99.7964 178.932 99.7964C180.687 99.7964 182.235 99.4741 183.578 98.8296C184.939 98.1672 186.004 97.2451 186.774 96.0635C187.562 94.8639 187.991 93.4674 188.063 91.874L188.09 91.3101H179.228V85.2676H195.985V89.7256C195.985 92.3574 195.591 94.7207 194.804 96.8154C194.034 98.9102 192.906 100.692 191.42 102.16C189.952 103.628 188.153 104.747 186.022 105.517C183.891 106.286 181.483 106.671 178.798 106.671ZM213.791 106.591C210.854 106.591 208.33 105.991 206.217 104.792C204.105 103.574 202.475 101.846 201.33 99.6084C200.202 97.3704 199.638 94.7207 199.638 91.6592V91.6323C199.638 88.5708 200.202 85.9211 201.33 83.6831C202.475 81.4272 204.078 79.6906 206.137 78.4731C208.214 77.2378 210.657 76.6201 213.468 76.6201C216.279 76.6201 218.705 77.2199 220.746 78.4194C222.805 79.6011 224.389 81.2751 225.5 83.4414C226.627 85.6077 227.191 88.1411 227.191 91.0415V93.4585H203.478V88.5171H223.485L219.752 93.1362V90.1284C219.752 88.4455 219.493 87.04 218.974 85.9121C218.454 84.7663 217.729 83.9069 216.798 83.334C215.885 82.7611 214.82 82.4746 213.603 82.4746C212.385 82.4746 211.302 82.77 210.353 83.3608C209.422 83.9517 208.688 84.82 208.151 85.9658C207.632 87.0938 207.372 88.4813 207.372 90.1284V93.1631C207.372 94.7565 207.632 96.1172 208.151 97.2451C208.688 98.373 209.449 99.2414 210.434 99.8501C211.418 100.441 212.591 100.736 213.952 100.736C215.026 100.736 215.957 100.566 216.745 100.226C217.532 99.8859 218.177 99.4562 218.678 98.937C219.18 98.4178 219.52 97.8896 219.699 97.3525L219.752 97.1914H226.95L226.869 97.4868C226.654 98.5431 226.234 99.6084 225.607 100.683C224.98 101.757 224.13 102.742 223.056 103.637C221.999 104.532 220.701 105.248 219.162 105.785C217.64 106.322 215.849 106.591 213.791 106.591ZM242.687 106.591C239.5 106.591 237.137 105.919 235.597 104.577C234.057 103.234 233.288 101.023 233.288 97.9434V83.1191H229.286V77.2109H233.288V70.1748H241.21V77.2109H246.474V83.1191H241.21V97.084C241.21 98.4268 241.505 99.3667 242.096 99.9038C242.705 100.423 243.6 100.683 244.782 100.683C245.14 100.683 245.453 100.674 245.722 100.656C245.99 100.62 246.241 100.584 246.474 100.548V106.295C246.044 106.367 245.507 106.43 244.862 106.483C244.236 106.555 243.511 106.591 242.687 106.591ZM266.212 115.48C265.443 115.48 264.7 115.444 263.983 115.373C263.267 115.301 262.676 115.22 262.211 115.131V109.303C262.497 109.357 262.864 109.411 263.312 109.464C263.76 109.536 264.27 109.572 264.843 109.572C266.024 109.572 266.955 109.375 267.636 108.981C268.316 108.587 268.826 107.907 269.167 106.94L269.516 106L259.337 77.2109H267.958L274.457 101.273L273.41 99.7158H274.887L273.839 101.273L280.338 77.2109H288.61L278.727 106.51C277.975 108.766 277.026 110.548 275.88 111.854C274.752 113.161 273.392 114.092 271.798 114.647C270.205 115.202 268.343 115.48 266.212 115.48ZM303.542 106.591C300.623 106.591 298.099 105.991 295.968 104.792C293.838 103.592 292.191 101.873 291.027 99.6353C289.863 97.3973 289.281 94.7207 289.281 91.6055V91.5518C289.281 88.4544 289.872 85.7957 291.054 83.5757C292.235 81.3377 293.891 79.619 296.022 78.4194C298.153 77.2199 300.65 76.6201 303.515 76.6201C306.397 76.6201 308.904 77.2199 311.034 78.4194C313.183 79.6011 314.848 81.3109 316.029 83.5488C317.211 85.7689 317.802 88.4365 317.802 91.5518V91.6055C317.802 94.7386 317.211 97.4242 316.029 99.6621C314.866 101.9 313.218 103.619 311.088 104.818C308.957 106 306.442 106.591 303.542 106.591ZM303.568 100.441C304.84 100.441 305.941 100.101 306.872 99.4204C307.82 98.7222 308.546 97.7196 309.047 96.4126C309.566 95.0877 309.826 93.4854 309.826 91.6055V91.5518C309.826 89.6898 309.566 88.1053 309.047 86.7983C308.528 85.4914 307.794 84.4977 306.845 83.8174C305.896 83.1191 304.786 82.77 303.515 82.77C302.261 82.77 301.16 83.1191 300.211 83.8174C299.28 84.4977 298.555 85.4914 298.036 86.7983C297.517 88.1053 297.257 89.6898 297.257 91.5518V91.6055C297.257 93.4854 297.508 95.0877 298.009 96.4126C298.528 97.7196 299.263 98.7222 300.211 99.4204C301.16 100.101 302.279 100.441 303.568 100.441ZM331.659 106.591C329.547 106.591 327.747 106.161 326.261 105.302C324.793 104.424 323.665 103.18 322.877 101.569C322.108 99.9575 321.723 98.0329 321.723 95.7949V77.2109H329.564V94.1567C329.564 96.0366 330.003 97.4958 330.88 98.5342C331.776 99.5726 333.1 100.092 334.855 100.092C335.732 100.092 336.52 99.9396 337.218 99.6353C337.934 99.3309 338.543 98.9012 339.044 98.3462C339.546 97.7733 339.931 97.1019 340.199 96.332C340.468 95.5443 340.602 94.6849 340.602 93.7539V77.2109H348.444V106H340.602V101.247H340.441C339.94 102.339 339.277 103.288 338.454 104.093C337.648 104.899 336.672 105.517 335.526 105.946C334.398 106.376 333.109 106.591 331.659 106.591ZM353.546 106V77.2109H361.388V82.2329H361.549C361.979 80.4604 362.758 79.0819 363.886 78.0972C365.014 77.1125 366.419 76.6201 368.102 76.6201C368.532 76.6201 368.944 76.647 369.337 76.7007C369.731 76.7544 370.071 76.826 370.358 76.9155V83.8174C370.036 83.6921 369.624 83.5936 369.123 83.522C368.621 83.4325 368.084 83.3877 367.511 83.3877C366.222 83.3877 365.121 83.6383 364.208 84.1396C363.295 84.641 362.597 85.375 362.113 86.3418C361.63 87.3086 361.388 88.4902 361.388 89.8867V106H353.546ZM397.697 106.591C394.778 106.591 392.254 105.991 390.124 104.792C387.993 103.592 386.346 101.873 385.182 99.6353C384.018 97.3973 383.437 94.7207 383.437 91.6055V91.5518C383.437 88.4544 384.027 85.7957 385.209 83.5757C386.391 81.3377 388.047 79.619 390.177 78.4194C392.308 77.2199 394.805 76.6201 397.67 76.6201C400.552 76.6201 403.059 77.2199 405.189 78.4194C407.338 79.6011 409.003 81.3109 410.185 83.5488C411.366 85.7689 411.957 88.4365 411.957 91.5518V91.6055C411.957 94.7386 411.366 97.4242 410.185 99.6621C409.021 101.9 407.374 103.619 405.243 104.818C403.113 106 400.597 106.591 397.697 106.591ZM397.724 100.441C398.995 100.441 400.096 100.101 401.027 99.4204C401.976 98.7222 402.701 97.7196 403.202 96.4126C403.721 95.0877 403.981 93.4854 403.981 91.6055V91.5518C403.981 89.6898 403.721 88.1053 403.202 86.7983C402.683 85.4914 401.949 84.4977 401 83.8174C400.051 83.1191 398.941 82.77 397.67 82.77C396.417 82.77 395.316 83.1191 394.367 83.8174C393.436 84.4977 392.711 85.4914 392.191 86.7983C391.672 88.1053 391.413 89.6898 391.413 91.5518V91.6055C391.413 93.4854 391.663 95.0877 392.165 96.4126C392.684 97.7196 393.418 98.7222 394.367 99.4204C395.316 100.101 396.435 100.441 397.724 100.441ZM421.356 106L413.703 77.2109H421.598L425.949 98.561H426.11L431.212 77.2109H438.732L443.861 98.561H444.022L448.4 77.2109H456.134L448.507 106H440.155L434.945 85.6436H434.784L429.601 106H421.356ZM459.196 106V77.2109H467.038V81.9375H467.199C467.951 80.2904 469.061 78.9924 470.529 78.0435C471.997 77.0946 473.814 76.6201 475.98 76.6201C479.149 76.6201 481.593 77.578 483.312 79.4937C485.049 81.3914 485.917 84.0322 485.917 87.416V106H478.075V89.0273C478.075 87.1475 477.628 85.6973 476.732 84.6768C475.855 83.6383 474.539 83.1191 472.785 83.1191C471.621 83.1191 470.609 83.3877 469.75 83.9248C468.891 84.444 468.219 85.1781 467.736 86.127C467.27 87.0758 467.038 88.1859 467.038 89.457V106H459.196ZM501.789 106V77.2109H509.63V82.2329H509.792C510.221 80.4604 511 79.0819 512.128 78.0972C513.256 77.1125 514.661 76.6201 516.344 76.6201C516.774 76.6201 517.186 76.647 517.58 76.7007C517.973 76.7544 518.314 76.826 518.6 76.9155V83.8174C518.278 83.6921 517.866 83.5936 517.365 83.522C516.863 83.4325 516.326 83.3877 515.753 83.3877C514.464 83.3877 513.363 83.6383 512.45 84.1396C511.537 84.641 510.839 85.375 510.355 86.3418C509.872 87.3086 509.63 88.4902 509.63 89.8867V106H501.789ZM529.691 106.457C527.776 106.457 526.093 106.09 524.643 105.355C523.192 104.604 522.056 103.574 521.232 102.267C520.426 100.942 520.023 99.4383 520.023 97.7554V97.7017C520.023 95.9471 520.462 94.4521 521.339 93.2168C522.217 91.9635 523.488 90.9788 525.153 90.2627C526.818 89.5465 528.841 89.1079 531.222 88.9468L542.448 88.2485V93.1362L532.404 93.7808C530.9 93.8703 529.754 94.2284 528.966 94.855C528.179 95.4637 527.785 96.2783 527.785 97.2988V97.3525C527.785 98.4089 528.188 99.2414 528.993 99.8501C529.799 100.441 530.882 100.736 532.243 100.736C533.406 100.736 534.445 100.513 535.358 100.065C536.289 99.5994 537.014 98.9728 537.533 98.1851C538.07 97.3794 538.339 96.4753 538.339 95.4727V86.7446C538.339 85.4735 537.936 84.4709 537.13 83.7368C536.325 82.9849 535.152 82.6089 533.612 82.6089C532.144 82.6089 530.98 82.9132 530.121 83.522C529.262 84.1307 528.734 84.9006 528.537 85.8315L528.483 86.0732H521.312L521.339 85.751C521.483 83.9785 522.064 82.403 523.085 81.0244C524.123 79.6458 525.556 78.5716 527.382 77.8018C529.226 77.014 531.41 76.6201 533.935 76.6201C536.423 76.6201 538.581 77.0229 540.407 77.8286C542.233 78.6164 543.647 79.7354 544.65 81.1855C545.67 82.6357 546.181 84.3276 546.181 86.2612V106H538.339V101.703H538.178C537.641 102.688 536.942 103.538 536.083 104.254C535.242 104.953 534.284 105.499 533.209 105.893C532.135 106.269 530.963 106.457 529.691 106.457ZM562.697 106.591C559.51 106.591 557.147 105.919 555.607 104.577C554.067 103.234 553.297 101.023 553.297 97.9434V83.1191H549.296V77.2109H553.297V70.1748H561.22V77.2109H566.483V83.1191H561.22V97.084C561.22 98.4268 561.515 99.3667 562.106 99.9038C562.715 100.423 563.61 100.683 564.792 100.683C565.15 100.683 565.463 100.674 565.731 100.656C566 100.62 566.251 100.584 566.483 100.548V106.295C566.054 106.367 565.517 106.43 564.872 106.483C564.245 106.555 563.52 106.591 562.697 106.591ZM570.968 106V77.2109H578.81V106H570.968ZM574.889 73.5049C573.708 73.5049 572.714 73.1021 571.908 72.2964C571.103 71.4907 570.7 70.5329 570.7 69.4229C570.7 68.2949 571.103 67.3371 571.908 66.5493C572.714 65.7437 573.708 65.3408 574.889 65.3408C576.071 65.3408 577.064 65.7437 577.87 66.5493C578.676 67.3371 579.079 68.2949 579.079 69.4229C579.079 70.5329 578.676 71.4907 577.87 72.2964C577.064 73.1021 576.071 73.5049 574.889 73.5049ZM584.074 106V77.2109H591.916V81.9375H592.077C592.829 80.2904 593.939 78.9924 595.407 78.0435C596.875 77.0946 598.692 76.6201 600.858 76.6201C604.027 76.6201 606.471 77.578 608.19 79.4937C609.927 81.3914 610.795 84.0322 610.795 87.416V106H602.953V89.0273C602.953 87.1475 602.506 85.6973 601.61 84.6768C600.733 83.6383 599.417 83.1191 597.663 83.1191C596.499 83.1191 595.487 83.3877 594.628 83.9248C593.769 84.444 593.097 85.1781 592.614 86.127C592.148 87.0758 591.916 88.1859 591.916 89.457V106H584.074ZM629.218 115.99C626.586 115.99 624.285 115.623 622.316 114.889C620.364 114.173 618.807 113.197 617.643 111.962C616.497 110.727 615.799 109.339 615.548 107.799L615.521 107.558H623.148L623.229 107.746C623.551 108.444 624.223 109.062 625.243 109.599C626.264 110.136 627.589 110.404 629.218 110.404C631.241 110.404 632.781 109.921 633.837 108.954C634.893 107.987 635.421 106.698 635.421 105.087V100.683H635.26C634.759 101.685 634.079 102.554 633.219 103.288C632.36 104.022 631.348 104.595 630.185 105.006C629.039 105.4 627.768 105.597 626.371 105.597C623.972 105.597 621.895 105.024 620.141 103.878C618.404 102.733 617.061 101.094 616.112 98.9639C615.181 96.8154 614.716 94.2552 614.716 91.2832V91.2563C614.716 88.1948 615.19 85.5719 616.139 83.3877C617.106 81.2035 618.467 79.5295 620.221 78.3657C621.976 77.202 624.07 76.6201 626.505 76.6201C627.866 76.6201 629.11 76.8439 630.238 77.2915C631.366 77.7391 632.351 78.3747 633.192 79.1982C634.052 80.0218 634.741 80.9976 635.26 82.1255H635.421V77.2109H643.263V105.194C643.263 107.325 642.69 109.196 641.544 110.807C640.417 112.436 638.796 113.708 636.684 114.621C634.589 115.534 632.1 115.99 629.218 115.99ZM629.083 99.8501C630.373 99.8501 631.492 99.5099 632.44 98.8296C633.389 98.1493 634.123 97.1825 634.643 95.9292C635.18 94.6759 635.448 93.1899 635.448 91.4712V91.4443C635.448 89.7256 635.18 88.2485 634.643 87.0132C634.123 85.7599 633.38 84.8021 632.414 84.1396C631.465 83.4593 630.355 83.1191 629.083 83.1191C627.794 83.1191 626.667 83.4593 625.7 84.1396C624.733 84.8021 623.99 85.751 623.471 86.9863C622.951 88.2217 622.692 89.7077 622.692 91.4443V91.4712C622.692 93.1899 622.951 94.6759 623.471 95.9292C623.99 97.1825 624.733 98.1493 625.7 98.8296C626.667 99.5099 627.794 99.8501 629.083 99.8501ZM660.263 106.591C657.613 106.591 655.357 106.206 653.495 105.436C651.633 104.666 650.174 103.601 649.118 102.24C648.079 100.862 647.453 99.2682 647.238 97.46L647.211 97.2183H654.865L654.918 97.46C655.169 98.5879 655.733 99.4652 656.61 100.092C657.488 100.718 658.705 101.032 660.263 101.032C661.265 101.032 662.116 100.915 662.814 100.683C663.512 100.432 664.049 100.083 664.425 99.6353C664.819 99.1877 665.016 98.6506 665.016 98.0239V97.9971C665.016 97.2272 664.739 96.6095 664.184 96.144C663.629 95.6785 662.644 95.2847 661.229 94.9624L656.342 93.9419C654.48 93.548 652.922 92.984 651.669 92.25C650.434 91.498 649.503 90.576 648.876 89.4839C648.249 88.3739 647.936 87.1027 647.936 85.6704V85.6436C647.936 83.7995 648.428 82.2061 649.413 80.8633C650.398 79.5205 651.794 78.4821 653.603 77.748C655.429 76.9961 657.559 76.6201 659.994 76.6201C662.536 76.6201 664.694 77.0319 666.466 77.8555C668.257 78.6611 669.626 79.7533 670.575 81.1318C671.542 82.5104 672.052 84.0412 672.106 85.7241V85.9927H664.882L664.855 85.7778C664.73 84.7394 664.246 83.88 663.405 83.1997C662.581 82.5015 661.444 82.1523 659.994 82.1523C659.099 82.1523 658.32 82.2777 657.658 82.5283C656.995 82.779 656.485 83.137 656.127 83.6025C655.769 84.0501 655.59 84.5872 655.59 85.2139V85.2407C655.59 85.7241 655.706 86.1628 655.939 86.5566C656.19 86.9326 656.601 87.2638 657.174 87.5503C657.747 87.8368 658.517 88.0874 659.484 88.3022L664.372 89.3496C667.397 89.9762 669.564 90.9162 670.871 92.1694C672.195 93.4227 672.858 95.1056 672.858 97.2183V97.2451C672.858 99.125 672.321 100.763 671.247 102.16C670.172 103.556 668.686 104.648 666.789 105.436C664.909 106.206 662.733 106.591 660.263 106.591ZM687.628 106V77.2109H695.47V81.9375H695.631C696.383 80.2904 697.493 78.9924 698.961 78.0435C700.43 77.0946 702.247 76.6201 704.413 76.6201C707.582 76.6201 710.026 77.578 711.745 79.4937C713.481 81.3914 714.35 84.0322 714.35 87.416V106H706.508V89.0273C706.508 87.1475 706.06 85.6973 705.165 84.6768C704.288 83.6383 702.972 83.1191 701.217 83.1191C700.054 83.1191 699.042 83.3877 698.183 83.9248C697.323 84.444 696.652 85.1781 696.168 86.127C695.703 87.0758 695.47 88.1859 695.47 89.457V106H687.628ZM732.531 106.591C729.612 106.591 727.088 105.991 724.958 104.792C722.827 103.592 721.18 101.873 720.016 99.6353C718.852 97.3973 718.271 94.7207 718.271 91.6055V91.5518C718.271 88.4544 718.861 85.7957 720.043 83.5757C721.225 81.3377 722.881 79.619 725.011 78.4194C727.142 77.2199 729.639 76.6201 732.504 76.6201C735.386 76.6201 737.893 77.2199 740.023 78.4194C742.172 79.6011 743.837 81.3109 745.019 83.5488C746.2 85.7689 746.791 88.4365 746.791 91.5518V91.6055C746.791 94.7386 746.2 97.4242 745.019 99.6621C743.855 101.9 742.208 103.619 740.077 104.818C737.947 106 735.431 106.591 732.531 106.591ZM732.558 100.441C733.829 100.441 734.93 100.101 735.861 99.4204C736.81 98.7222 737.535 97.7196 738.036 96.4126C738.555 95.0877 738.815 93.4854 738.815 91.6055V91.5518C738.815 89.6898 738.555 88.1053 738.036 86.7983C737.517 85.4914 736.783 84.4977 735.834 83.8174C734.885 83.1191 733.775 82.77 732.504 82.77C731.251 82.77 730.15 83.1191 729.201 83.8174C728.27 84.4977 727.545 85.4914 727.025 86.7983C726.506 88.1053 726.247 89.6898 726.247 91.5518V91.6055C726.247 93.4854 726.497 95.0877 726.999 96.4126C727.518 97.7196 728.252 98.7222 729.201 99.4204C730.15 100.101 731.269 100.441 732.558 100.441ZM756.19 106L748.537 77.2109H756.432L760.783 98.561H760.944L766.046 77.2109H773.566L778.695 98.561H778.856L783.234 77.2109H790.968L783.341 106H774.989L769.779 85.6436H769.618L764.435 106H756.19ZM796.796 92.9751L796.151 67.2476H804.208L803.563 92.9751H796.796ZM800.18 106.322C798.962 106.322 797.924 105.919 797.064 105.114C796.223 104.29 795.802 103.288 795.802 102.106C795.802 100.924 796.223 99.9307 797.064 99.125C797.924 98.3014 798.962 97.8896 800.18 97.8896C801.397 97.8896 802.427 98.3014 803.268 99.125C804.127 99.9307 804.557 100.924 804.557 102.106C804.557 103.288 804.127 104.29 803.268 105.114C802.427 105.919 801.397 106.322 800.18 106.322Z" fill="white"/>
<defs>
<radialGradient id="paint0_radial_571_7" cx="0" cy="0" r="1" gradientTransform="matrix(-572.838 -212.444 1764.41 -152.589 816.27 196.355)" gradientUnits="userSpaceOnUse">
<stop offset="0.24392" stop-color="#FF1B90"/>
<stop offset="0.436673" stop-color="#F80261"/>
<stop offset="0.688476" stop-color="#ED00C0"/>
<stop offset="0.776787" stop-color="#C500E9"/>
<stop offset="0.893155" stop-color="#7017FF"/>
</radialGradient>
<radialGradient id="paint1_radial_571_7" cx="0" cy="0" r="1" gradientTransform="matrix(307.188 -86.154 500.38 57.2225 350.175 167.031)" gradientUnits="userSpaceOnUse">
<stop stop-color="#FFD600"/>
<stop offset="0.484375" stop-color="#FF6930"/>
<stop offset="0.734375" stop-color="#FE3B36"/>
<stop offset="1" stop-color="#FE3B36" stop-opacity="0"/>
</radialGradient>
</defs>
</svg>
