<svg width="596" height="173" viewBox="0 0 596 173" fill="none" xmlns="http://www.w3.org/2000/svg">
<rect width="596" height="173" rx="86.5" fill="#FCF300"/>
<rect x="4.5" y="4.5" width="587" height="164" rx="82" stroke="black" stroke-opacity="0.1" stroke-width="9"/>
<path d="M513.312 111.484C511.906 111.484 510.773 111.055 509.914 110.195C509.055 109.31 508.625 108.229 508.625 106.953C508.625 106.224 508.755 105.586 509.016 105.039C509.302 104.466 509.667 103.971 510.109 103.555L516.32 97.3047L527.883 86.6797L516.32 76.0938L510.109 69.8047C509.667 69.388 509.302 68.9062 509.016 68.3594C508.755 67.7865 508.625 67.1354 508.625 66.4062C508.625 65.1302 509.055 64.0625 509.914 63.2031C510.773 62.3177 511.906 61.875 513.312 61.875C514.536 61.875 515.643 62.3698 516.633 63.3594L536.477 83.1641C537.44 84.1276 537.922 85.2995 537.922 86.6797C537.922 88.0859 537.44 89.2578 536.477 90.1953L516.633 110C515.643 110.99 514.536 111.484 513.312 111.484ZM483.039 91.4844C481.555 91.4844 480.357 91.0417 479.445 90.1562C478.534 89.2708 478.078 88.112 478.078 86.6797C478.078 85.2734 478.534 84.1276 479.445 83.2422C480.357 82.3568 481.555 81.9141 483.039 81.9141H516.438L528.781 82.6172C530.057 82.6953 531.086 83.099 531.867 83.8281C532.648 84.5312 533.039 85.4818 533.039 86.6797C533.039 87.9036 532.648 88.8802 531.867 89.6094C531.086 90.3125 530.057 90.7031 528.781 90.7812L516.438 91.4844H483.039Z" fill="#191919"/>
<path d="M242.355 108.793C238.737 108.793 235.574 108.264 232.865 107.207C230.178 106.127 228.062 104.593 226.518 102.604C224.973 100.594 224.105 98.1823 223.915 95.3682L223.883 94.8604H232.929L232.992 95.2095C233.204 96.3944 233.733 97.4206 234.579 98.2881C235.447 99.1344 236.568 99.8009 237.943 100.288C239.319 100.753 240.874 100.986 242.609 100.986C244.386 100.986 245.91 100.753 247.179 100.288C248.47 99.8009 249.464 99.1239 250.163 98.2563C250.882 97.3677 251.242 96.3415 251.242 95.1777V95.146C251.242 93.6014 250.628 92.3953 249.401 91.5278C248.195 90.6392 246.164 89.8986 243.307 89.3062L238.483 88.354C233.976 87.4442 230.58 85.9102 228.295 83.752C226.01 81.5938 224.867 78.7902 224.867 75.3413V75.3096C224.867 72.5166 225.618 70.0833 227.121 68.0098C228.623 65.915 230.686 64.2964 233.31 63.1538C235.933 61.9901 238.938 61.4082 242.323 61.4082C245.857 61.4082 248.904 61.9583 251.464 63.0586C254.045 64.1589 256.055 65.714 257.494 67.7241C258.933 69.7342 259.726 72.0723 259.875 74.7383L259.906 75.3413H250.861L250.829 74.9604C250.66 73.7544 250.205 72.7282 249.464 71.8818C248.724 71.0143 247.74 70.3478 246.513 69.8823C245.307 69.4168 243.91 69.1841 242.323 69.1841C240.694 69.1841 239.287 69.4274 238.102 69.9141C236.917 70.3796 236.007 71.0249 235.373 71.8501C234.759 72.6753 234.452 73.638 234.452 74.7383V74.77C234.452 76.2088 235.066 77.3726 236.293 78.2612C237.52 79.1499 239.446 79.8587 242.069 80.3877L246.925 81.3716C250.12 82.0063 252.744 82.8844 254.796 84.0059C256.849 85.1273 258.362 86.5449 259.335 88.2588C260.329 89.9515 260.827 91.9933 260.827 94.3843V94.416C260.827 97.3571 260.086 99.9067 258.605 102.065C257.145 104.202 255.029 105.863 252.257 107.048C249.507 108.212 246.206 108.793 242.355 108.793ZM281.393 108.698C277.923 108.698 274.94 107.989 272.443 106.572C269.946 105.133 268.021 103.091 266.667 100.446C265.333 97.8014 264.667 94.6699 264.667 91.0518V91.02C264.667 87.4019 265.333 84.2703 266.667 81.6255C268.021 78.9595 269.914 76.9071 272.348 75.4683C274.802 74.0083 277.69 73.2783 281.012 73.2783C284.334 73.2783 287.201 73.9871 289.613 75.4048C292.047 76.8013 293.919 78.7796 295.231 81.3398C296.564 83.9001 297.23 86.894 297.23 90.3218V93.1782H269.206V87.3384H292.851L288.439 92.7974V89.2427C288.439 87.2537 288.132 85.5928 287.519 84.2598C286.905 82.9056 286.048 81.89 284.948 81.2129C283.869 80.5358 282.61 80.1973 281.171 80.1973C279.732 80.1973 278.452 80.5464 277.331 81.2446C276.23 81.9429 275.363 82.9691 274.728 84.3232C274.114 85.6562 273.808 87.2961 273.808 89.2427V92.8291C273.808 94.7122 274.114 96.3203 274.728 97.6533C275.363 98.9863 276.262 100.013 277.426 100.732C278.59 101.43 279.975 101.779 281.583 101.779C282.853 101.779 283.953 101.578 284.884 101.176C285.815 100.774 286.577 100.266 287.169 99.6528C287.762 99.0392 288.164 98.415 288.375 97.7803L288.439 97.5898H296.945L296.85 97.939C296.596 99.1873 296.098 100.446 295.358 101.716C294.617 102.985 293.612 104.149 292.343 105.207C291.094 106.265 289.56 107.111 287.741 107.746C285.942 108.381 283.826 108.698 281.393 108.698ZM302.023 108V73.9766H311.291V79.5625H311.481C312.37 77.6159 313.681 76.0819 315.417 74.9604C317.152 73.839 319.299 73.2783 321.859 73.2783C325.604 73.2783 328.493 74.4103 330.524 76.6743C332.576 78.9172 333.603 82.0381 333.603 86.0371V108H324.335V87.9414C324.335 85.7197 323.806 84.0059 322.748 82.7998C321.711 81.5726 320.156 80.959 318.083 80.959C316.707 80.959 315.512 81.2764 314.496 81.9111C313.48 82.5247 312.687 83.3923 312.116 84.5137C311.566 85.6351 311.291 86.9469 311.291 88.4492V108H302.023ZM352.074 108.698C349.218 108.698 346.753 107.989 344.679 106.572C342.606 105.154 341.008 103.123 339.887 100.478C338.786 97.8332 338.236 94.6699 338.236 90.9883V90.9565C338.236 87.2537 338.797 84.0905 339.918 81.4668C341.04 78.8219 342.627 76.8013 344.679 75.4048C346.753 73.9871 349.218 73.2783 352.074 73.2783C353.682 73.2783 355.163 73.5428 356.518 74.0718C357.872 74.6007 359.057 75.3625 360.072 76.3569C361.109 77.3302 361.934 78.5046 362.548 79.8799H362.738V62.2017H372.006V108H362.738V102.192H362.548C361.955 103.546 361.151 104.71 360.136 105.683C359.12 106.635 357.935 107.376 356.581 107.905C355.227 108.434 353.725 108.698 352.074 108.698ZM355.185 101.018C356.687 101.018 358.009 100.616 359.152 99.8115C360.294 98.9863 361.183 97.8226 361.818 96.3203C362.453 94.818 362.77 93.0407 362.77 90.9883V90.9565C362.77 88.9041 362.442 87.1374 361.786 85.6562C361.151 84.154 360.263 83.0008 359.12 82.1968C357.999 81.3716 356.687 80.959 355.185 80.959C353.64 80.959 352.307 81.361 351.186 82.165C350.064 82.9691 349.197 84.1222 348.583 85.6245C347.969 87.1056 347.663 88.883 347.663 90.9565V90.9883C347.663 93.0407 347.959 94.818 348.551 96.3203C349.165 97.8226 350.032 98.9863 351.154 99.8115C352.296 100.616 353.64 101.018 355.185 101.018Z" fill="#191919"/>
</svg>
