<svg width="1156" height="514" viewBox="0 0 1156 514" fill="none" xmlns="http://www.w3.org/2000/svg">
<path d="M39 145C39 89.7715 83.7715 45 139 45H1056C1111.23 45 1156 89.7715 1156 145V374C1156 451.32 1093.32 514 1016 514H139C83.7715 514 39 469.228 39 414V145Z" fill="#191919"/>
<path d="M139 49.5H1056C1108.74 49.5 1151.5 92.2568 1151.5 145V374C1151.5 448.835 1090.83 509.5 1016 509.5H139C86.2568 509.5 43.5 466.743 43.5 414V145C43.5 92.2568 86.2568 49.5 139 49.5Z" stroke="black" stroke-opacity="0.1" stroke-width="9"/>
<path d="M1024 4.5C1081.71 4.5 1128.5 51.2862 1128.5 109V365C1128.5 433.759 1072.76 489.5 1004 489.5H109C51.2862 489.5 4.5 442.714 4.5 385V109C4.5 51.2862 51.2862 4.5 109 4.5H1024Z" fill="#FDFD96" stroke="white" stroke-width="9"/>
<g filter="url(#filter0_d_571_8)">
<rect x="819.855" y="156" width="194.776" height="67" rx="33.5" transform="rotate(5 819.855 156)" fill="white"/>
</g>
<path d="M854.878 183.916C856.574 184.847 857.373 185.866 857.276 186.972C857.229 187.509 857.065 188.007 856.784 188.464C856.503 188.922 856.361 189.165 856.359 189.195L842.315 214.437C842.027 214.984 841.78 215.399 841.574 215.682C841.398 215.968 841.12 216.23 840.737 216.467C840.355 216.705 839.895 216.8 839.357 216.753C838.819 216.706 838.047 216.413 837.04 215.873C835.345 214.942 834.544 213.938 834.638 212.862C834.701 212.145 836.435 208.848 839.84 202.973L832.233 187.175C831.722 186.136 831.487 185.378 831.529 184.9C831.612 183.943 832.503 183.058 834.2 182.242C835.269 181.734 836.087 181.504 836.655 181.554C837.223 181.603 837.675 181.763 838.013 182.034C838.351 182.304 838.583 182.581 838.709 182.863C838.867 183.117 839.567 184.579 840.809 187.247C842.084 189.889 843.298 192.359 844.452 194.658C844.644 194.193 845.611 192.426 847.356 189.356C849.102 186.256 850.03 184.606 850.138 184.405C850.276 184.206 850.477 183.968 850.742 183.69C851.175 183.216 851.735 183.009 852.423 183.069C853.14 183.131 853.959 183.414 854.878 183.916ZM880.618 194.976C880.459 196.799 879.876 198.119 878.872 198.934C877.899 199.722 876.86 200.068 875.754 199.971L865.13 199.042C865.057 199.879 865.488 200.624 866.425 201.278C867.361 201.932 868.323 202.303 869.309 202.389C871.042 202.541 872.418 202.48 873.436 202.208L873.944 202.072C874.69 201.806 875.302 201.694 875.781 201.736C876.737 201.819 877.5 202.564 878.07 203.969C878.388 204.809 878.522 205.514 878.472 206.082C878.239 208.741 874.94 209.793 868.575 209.236C866.363 209.043 864.423 208.496 862.755 207.598C861.12 206.671 859.879 205.539 859.032 204.2C857.361 201.615 856.656 198.828 856.918 195.839C857.247 192.073 858.72 189.176 861.337 187.146C863.987 185.089 867.134 184.22 870.78 184.539C874.935 184.903 877.855 186.634 879.541 189.733C880.421 191.376 880.78 193.123 880.618 194.976ZM871.046 195.449C872.181 195.548 872.791 195.12 872.875 194.163C872.935 193.476 872.714 192.9 872.213 192.434C871.741 191.971 871.012 191.697 870.026 191.61C869.07 191.527 868.078 191.847 867.051 192.57C866.027 193.263 865.476 194.058 865.397 194.955L871.046 195.449ZM899.443 190.073C899.769 188.416 901.022 187.682 903.204 187.873C904.37 187.975 905.229 188.14 905.781 188.369C906.333 188.598 906.694 188.946 906.864 189.413C907.064 189.882 907.163 190.297 907.161 190.658C907.192 190.992 907.178 191.503 907.118 192.19L905.745 207.88C905.685 208.568 905.609 209.088 905.518 209.442C905.459 209.768 905.306 210.146 905.057 210.576C904.571 211.316 903.506 211.615 901.862 211.471C900.248 211.33 899.175 211.04 898.641 210.602C898.139 210.136 897.878 209.511 897.856 208.726C896.612 210.213 894.69 210.843 892.09 210.616C889.519 210.391 887.232 209.001 885.227 206.447C883.222 203.892 882.355 201.061 882.627 197.953C882.902 194.815 884.247 192.177 886.662 190.039C889.11 187.875 891.664 186.908 894.324 187.141C895.34 187.23 896.251 187.49 897.056 187.922C897.862 188.354 898.415 188.749 898.715 189.106C899.017 189.434 899.26 189.756 899.443 190.073ZM890.468 198.684C890.382 199.67 890.692 200.601 891.399 201.476C892.108 202.321 893.015 202.792 894.121 202.888C895.227 202.985 896.173 202.661 896.961 201.917C897.779 201.176 898.23 200.327 898.313 199.37C898.4 198.384 898.121 197.441 897.477 196.542C896.863 195.645 895.958 195.144 894.762 195.039C893.597 194.937 892.604 195.272 891.784 196.044C890.993 196.818 890.555 197.698 890.468 198.684ZM924.118 189.793C927.107 190.054 929.488 191.407 931.262 193.851C933.065 196.297 933.823 199.164 933.536 202.452L932.845 210.342C932.785 211.029 932.709 211.55 932.618 211.903C932.56 212.229 932.391 212.606 932.113 213.033C931.656 213.776 930.472 214.064 928.559 213.897C926.736 213.737 925.634 213.249 925.254 212.433C925.054 211.964 924.94 211.547 924.912 211.184C924.913 210.822 924.945 210.283 925.008 209.566L925.694 201.721C925.802 200.495 925.542 199.509 924.914 198.761C924.287 198.014 923.436 197.593 922.36 197.499C921.314 197.407 920.358 197.655 919.494 198.242C918.632 198.799 918.106 199.476 917.916 200.272L917.155 208.969C917.095 209.656 917.019 210.177 916.928 210.53C916.87 210.856 916.701 211.233 916.423 211.66C915.966 212.404 914.782 212.691 912.869 212.524C910.986 212.359 909.871 211.855 909.523 211.012C909.353 210.545 909.253 210.145 909.222 209.811C909.221 209.479 909.251 208.955 909.314 208.238L911.659 181.43C911.72 180.743 911.779 180.236 911.838 179.91C911.929 179.557 912.097 179.18 912.343 178.78C912.832 178.009 914.033 177.708 915.946 177.875C917.828 178.04 918.929 178.543 919.247 179.384C919.447 179.853 919.546 180.268 919.544 180.629C919.575 180.963 919.561 181.474 919.501 182.161L918.634 192.069C920.288 190.376 922.116 189.618 924.118 189.793ZM937.818 202.284C936.702 201.615 936.209 200.533 936.34 199.038C936.471 197.544 937.16 196.55 938.408 196.057C949.189 190.887 955.383 187.906 956.988 187.113C958.593 186.319 959.549 185.891 959.856 185.828C960.198 185.707 960.593 185.666 961.041 185.705C961.848 185.776 962.621 186.581 963.359 188.122C963.846 189.098 964.068 189.825 964.026 190.303C963.987 190.751 963.849 191.131 963.611 191.441C963.3 191.896 962.639 192.395 961.628 192.939C952.261 197.42 947.389 199.764 947.009 199.972L960.184 209.436C960.723 209.814 961.103 210.119 961.324 210.349C961.935 210.944 962.212 211.556 962.157 212.183C962.105 212.781 961.772 213.49 961.158 214.309C960.577 215.102 960.061 215.659 959.612 215.981C959.162 216.303 958.713 216.444 958.265 216.405C957.667 216.353 956.915 216.001 956.008 215.35L937.818 202.284ZM978.88 184.691C982.556 185.013 985.363 186.313 987.302 188.59C989.241 190.868 990.096 193.322 989.865 195.952C989.638 198.552 988.308 200.333 985.875 201.294L985.847 201.608C986.133 201.784 986.538 202.15 987.061 202.708C987.617 203.238 988.053 203.758 988.37 204.268C989.246 205.609 989.614 207.087 989.473 208.701C989.193 211.899 987.766 214.439 985.192 216.322C982.621 218.175 979.527 218.943 975.911 218.627C972.325 218.313 969.428 217.005 967.22 214.704C966.394 213.819 965.695 212.689 965.122 211.314C964.925 210.815 964.795 210.412 964.731 210.105L964.681 209.649C964.438 208.634 964.345 207.812 964.399 207.185C964.551 205.451 966.091 204.713 969.02 204.969C970.216 205.074 970.994 205.292 971.357 205.625C971.831 206.058 972.211 206.875 972.498 208.074C972.713 209.057 973.472 209.846 974.775 210.442C975.327 210.671 975.947 210.815 976.634 210.875C978.218 211.014 979.411 210.802 980.213 210.24C981.018 209.648 981.456 208.948 981.526 208.141C981.597 207.334 981.285 206.599 980.59 205.936C979.928 205.246 979.088 204.856 978.072 204.767C977.086 204.681 976.416 204.592 976.063 204.501C975.709 204.41 975.334 204.227 974.936 203.951C974.163 203.492 973.861 202.306 974.028 200.393C974.211 198.301 974.872 197.109 976.012 196.818C976.533 196.713 977.317 196.706 978.363 196.797C980.634 196.996 981.821 196.513 981.923 195.347C981.978 194.719 981.731 194.096 981.183 193.476C980.635 192.855 979.823 192.498 978.747 192.404C977.701 192.313 976.849 192.419 976.19 192.722C975.531 193.026 975.111 193.351 974.93 193.696L974.614 194.211C973.796 195.645 972.744 196.306 971.459 196.193C970.712 196.128 969.914 195.787 969.064 195.171C967.646 194.173 966.986 193.107 967.086 191.971C967.127 191.493 967.56 190.507 968.383 189.013C968.526 188.754 968.896 188.32 969.491 187.71C970.089 187.069 970.754 186.525 971.486 186.077C972.248 185.632 973.275 185.255 974.566 184.946C975.888 184.64 977.326 184.555 978.88 184.691Z" fill="#F80261"/>
<path d="M876.035 148.297L955.731 155.27L962.703 75.574L883.008 68.6015L876.035 148.297Z" fill="#FF6930"/>
<g filter="url(#filter1_d_571_8)">
<rect x="97" y="175.839" width="189.378" height="67.5124" rx="33.7562" transform="rotate(-5 97 175.839)" fill="white"/>
</g>
<path d="M135.536 197.692C138.524 197.431 141.104 198.349 143.275 200.448C145.477 202.544 146.721 205.236 147.008 208.524L147.699 216.413C147.759 217.101 147.775 217.626 147.746 217.99C147.745 218.322 147.645 218.722 147.445 219.191C147.124 220.002 146.008 220.491 144.095 220.659C142.272 220.818 141.102 220.529 140.586 219.791C140.308 219.364 140.123 218.973 140.032 218.62C139.971 218.264 139.909 217.727 139.846 217.01L139.16 209.165C139.052 207.94 138.625 207.013 137.877 206.386C137.13 205.759 136.218 205.492 135.142 205.587C134.096 205.678 133.199 206.088 132.449 206.816C131.697 207.514 131.297 208.272 131.248 209.089L132.009 217.786C132.069 218.473 132.085 218.999 132.056 219.363C132.055 219.694 131.955 220.095 131.755 220.564C131.434 221.375 130.318 221.864 128.405 222.031C126.522 222.196 125.336 221.893 124.847 221.123C124.599 220.693 124.43 220.316 124.342 219.993C124.283 219.667 124.222 219.145 124.16 218.428L121.814 191.62C121.754 190.933 121.725 190.423 121.726 190.092C121.754 189.728 121.855 189.328 122.027 188.891C122.375 188.048 123.505 187.542 125.418 187.375C127.301 187.21 128.472 187.514 128.931 188.287C129.209 188.714 129.379 189.106 129.44 189.462C129.529 189.786 129.603 190.291 129.663 190.979L130.53 200.886C131.865 198.932 133.533 197.867 135.536 197.692ZM173.142 203.391C173.301 205.214 172.957 206.615 172.109 207.592C171.288 208.537 170.325 209.058 169.219 209.155L158.595 210.085C158.668 210.921 159.222 211.581 160.258 212.062C161.294 212.544 162.305 212.741 163.292 212.655C165.025 212.503 166.369 212.205 167.324 211.76L167.801 211.538C168.49 211.146 169.073 210.93 169.551 210.888C170.508 210.804 171.388 211.405 172.193 212.689C172.653 213.462 172.907 214.133 172.957 214.701C173.189 217.36 170.123 218.969 163.757 219.526C161.546 219.719 159.541 219.518 157.742 218.923C155.97 218.295 154.551 217.395 153.485 216.223C151.391 213.967 150.213 211.345 149.951 208.356C149.622 204.591 150.569 201.481 152.794 199.028C155.046 196.542 157.995 195.14 161.641 194.821C165.795 194.458 168.972 195.655 171.17 198.414C172.323 199.879 172.98 201.538 173.142 203.391ZM163.797 205.519C164.932 205.42 165.458 204.892 165.375 203.935C165.314 203.248 164.997 202.719 164.423 202.347C163.878 201.973 163.112 201.83 162.126 201.916C161.17 201.999 160.249 202.487 159.363 203.377C158.475 204.238 158.07 205.117 158.148 206.013L163.797 205.519ZM184.899 209.093C185.886 209.007 186.64 209.197 187.163 209.663C187.685 210.129 188.016 211.155 188.154 212.738C188.293 214.322 188.132 215.406 187.671 215.988C187.207 216.541 186.497 216.859 185.541 216.942C182.522 217.206 180.338 216.675 178.987 215.347C177.633 213.99 176.809 211.623 176.514 208.246L174.643 186.863C174.583 186.175 174.553 185.666 174.554 185.335C174.583 184.971 174.682 184.555 174.852 184.089C175.202 183.275 176.334 182.785 178.246 182.617C180.07 182.458 181.242 182.777 181.763 183.575C182.039 183.972 182.207 184.349 182.269 184.705C182.357 185.028 182.432 185.534 182.492 186.221L184.374 207.739C184.455 208.665 184.63 209.117 184.899 209.093ZM196.478 206.68C196.528 207.248 196.68 207.611 196.935 207.769C197.189 207.928 197.81 207.964 198.796 207.877C199.782 207.791 200.627 207.973 201.328 208.424C202.03 208.874 202.451 209.892 202.589 211.476C202.728 213.06 202.462 214.152 201.792 214.753C201.149 215.321 200.2 215.66 198.945 215.77C192.609 216.324 189.166 213.463 188.617 207.187L186.702 185.808C186.642 185.12 186.612 184.611 186.613 184.28C186.642 183.916 186.756 183.499 186.956 183.03C187.336 182.214 188.467 181.723 190.35 181.558C192.173 181.399 193.346 181.718 193.867 182.516C194.253 183.144 194.496 184.027 194.595 185.162L196.478 206.68ZM227.813 189.529C230.802 189.267 233.383 190.201 235.557 192.329C237.758 194.426 239.002 197.117 239.29 200.405L239.98 208.295C240.04 208.982 240.056 209.508 240.028 209.872C240.027 210.203 239.94 210.587 239.767 211.024C239.419 211.867 238.289 212.373 236.376 212.54C234.254 212.726 232.981 212.28 232.555 211.203C232.332 210.71 232.175 209.956 232.086 208.94L231.396 201.05C231.289 199.825 230.847 198.9 230.069 198.275C229.322 197.648 228.35 197.387 227.155 197.491C225.989 197.593 225.064 198.036 224.38 198.818C223.725 199.598 223.449 200.571 223.551 201.737L224.245 209.671C224.305 210.359 224.321 210.884 224.293 211.248C224.292 211.58 224.19 211.965 223.987 212.404C223.669 213.245 222.554 213.749 220.641 213.917C218.759 214.081 217.573 213.778 217.084 213.008C216.835 212.578 216.667 212.201 216.578 211.878C216.517 211.522 216.456 211 216.396 210.313L215.008 194.443C214.95 193.786 214.922 193.292 214.923 192.96C214.952 192.596 215.067 192.195 215.27 191.755C215.623 190.972 216.741 190.497 218.623 190.333C220.446 190.173 221.597 190.419 222.076 191.07C222.419 191.552 222.622 192.151 222.685 192.868C222.786 192.649 223.029 192.326 223.413 191.901C223.798 191.476 224.174 191.127 224.541 190.854C225.497 190.078 226.588 189.636 227.813 189.529ZM242.228 200.193C241.914 196.607 242.91 193.538 245.217 190.987C247.523 188.437 250.29 187.02 253.518 186.738C256.746 186.455 259.702 187.371 262.386 189.485C265.068 191.569 266.566 194.405 266.879 197.991C267.096 200.472 266.647 202.739 265.532 204.794C264.415 206.819 262.97 208.376 261.198 209.465C259.453 210.521 257.595 211.135 255.622 211.308C253.65 211.48 251.695 211.17 249.759 210.375C247.819 209.551 246.125 208.254 244.675 206.484C243.253 204.681 242.437 202.584 242.228 200.193ZM251.879 202.601C252.898 203.235 253.901 203.508 254.887 203.422C255.873 203.336 256.827 202.876 257.748 202.042C258.669 201.209 259.065 200.06 258.937 198.596C258.809 197.131 258.25 196.081 257.261 195.445C256.272 194.808 255.239 194.537 254.163 194.632C253.087 194.726 252.119 195.187 251.258 196.015C250.397 196.843 250.03 197.99 250.158 199.454C250.284 200.888 250.857 201.937 251.879 202.601Z" fill="#53B4F9"/>
<path d="M136.602 155.27L216.297 148.297L209.325 68.6017L129.629 75.5742L136.602 155.27Z" fill="#53B4F9"/>
<defs>
<filter id="filter0_d_571_8" x="761.005" y="102.99" width="305.897" height="189.741" filterUnits="userSpaceOnUse" color-interpolation-filters="sRGB">
<feFlood flood-opacity="0" result="BackgroundImageFix"/>
<feColorMatrix in="SourceAlpha" type="matrix" values="0 0 0 0 0 0 0 0 0 0 0 0 0 0 0 0 0 0 127 0" result="hardAlpha"/>
<feMorphology radius="18" operator="erode" in="SourceAlpha" result="effect1_dropShadow_571_8"/>
<feOffset/>
<feGaussianBlur stdDeviation="36.9"/>
<feComposite in2="hardAlpha" operator="out"/>
<feColorMatrix type="matrix" values="0 0 0 0 1 0 0 0 0 0.411765 0 0 0 0 0.188235 0 0 0 1 0"/>
<feBlend mode="normal" in2="BackgroundImageFix" result="effect1_dropShadow_571_8"/>
<feBlend mode="normal" in="SourceGraphic" in2="effect1_dropShadow_571_8" result="shape"/>
</filter>
<filter id="filter1_d_571_8" x="44.0125" y="106.346" width="300.518" height="189.738" filterUnits="userSpaceOnUse" color-interpolation-filters="sRGB">
<feFlood flood-opacity="0" result="BackgroundImageFix"/>
<feColorMatrix in="SourceAlpha" type="matrix" values="0 0 0 0 0 0 0 0 0 0 0 0 0 0 0 0 0 0 127 0" result="hardAlpha"/>
<feMorphology radius="18" operator="erode" in="SourceAlpha" result="effect1_dropShadow_571_8"/>
<feOffset/>
<feGaussianBlur stdDeviation="36.9"/>
<feComposite in2="hardAlpha" operator="out"/>
<feColorMatrix type="matrix" values="0 0 0 0 0.32549 0 0 0 0 0.705882 0 0 0 0 0.976471 0 0 0 1 0"/>
<feBlend mode="normal" in2="BackgroundImageFix" result="effect1_dropShadow_571_8"/>
<feBlend mode="normal" in="SourceGraphic" in2="effect1_dropShadow_571_8" result="shape"/>
</filter>
</defs>
</svg>
